<svg width="394" height="283" viewBox="0 0 394 283" fill="none" xmlns="http://www.w3.org/2000/svg">
<rect x="153.605" y="60.265" width="148.099" height="197.76" rx="10" fill="#FA6836"/>
<rect x="110" y="47" width="148.099" height="197.76" rx="10" fill="#F2E1D8"/>
<rect x="208" y="46" width="77" height="28" rx="14" fill="#C6E6E3"/>
<path d="M220.906 64L221.614 61.972H224.89L225.598 64H227.218L224.05 55.228H222.478L219.31 64H220.906ZM223.066 57.844C223.15 57.604 223.222 57.34 223.258 57.172C223.282 57.352 223.366 57.616 223.438 57.844L224.446 60.676H222.07L223.066 57.844ZM228.102 66.748H229.566V63.208C229.938 63.808 230.706 64.156 231.594 64.156C233.358 64.156 234.366 62.812 234.366 60.964C234.366 59.104 233.262 57.892 231.594 57.892C230.694 57.892 229.914 58.288 229.554 58.972L229.458 58.072H228.102V66.748ZM229.578 61.036C229.578 59.968 230.238 59.224 231.246 59.224C232.278 59.224 232.89 59.98 232.89 61.036C232.89 62.092 232.278 62.836 231.246 62.836C230.238 62.836 229.578 62.104 229.578 61.036ZM235.531 66.748H236.995V63.208C237.367 63.808 238.135 64.156 239.023 64.156C240.787 64.156 241.795 62.812 241.795 60.964C241.795 59.104 240.691 57.892 239.023 57.892C238.123 57.892 237.343 58.288 236.983 58.972L236.887 58.072H235.531V66.748ZM237.007 61.036C237.007 59.968 237.667 59.224 238.675 59.224C239.707 59.224 240.319 59.98 240.319 61.036C240.319 62.092 239.707 62.836 238.675 62.836C237.667 62.836 237.007 62.104 237.007 61.036ZM246.681 58.048C246.441 57.988 246.237 57.964 246.033 57.964C245.241 57.964 244.677 58.36 244.425 58.948L244.341 58.084H242.961V64H244.425V61.12C244.425 59.968 245.085 59.404 246.141 59.404H246.681V58.048ZM247.125 61.024C247.125 62.872 248.457 64.144 250.293 64.144C252.129 64.144 253.461 62.872 253.461 61.024C253.461 59.176 252.129 57.904 250.293 57.904C248.457 57.904 247.125 59.176 247.125 61.024ZM248.589 61.024C248.589 59.944 249.285 59.212 250.293 59.212C251.301 59.212 251.997 59.944 251.997 61.024C251.997 62.104 251.301 62.836 250.293 62.836C249.285 62.836 248.589 62.104 248.589 61.024ZM256.008 64H257.448L259.92 58.072H258.408L257.328 60.796C257.076 61.444 256.86 62.068 256.776 62.44C256.704 62.116 256.5 61.504 256.248 60.796L255.216 58.072H253.656L256.008 64ZM263.121 64.156C264.669 64.156 265.749 63.376 266.001 62.08H264.645C264.477 62.644 263.949 62.956 263.145 62.956C262.173 62.956 261.621 62.428 261.513 61.384L265.977 61.372V60.928C265.977 59.08 264.849 57.892 263.073 57.892C261.333 57.892 260.121 59.176 260.121 61.036C260.121 62.872 261.357 64.156 263.121 64.156ZM263.085 59.092C263.961 59.092 264.525 59.632 264.525 60.448H261.549C261.693 59.56 262.221 59.092 263.085 59.092ZM269.585 64.156C270.485 64.156 271.253 63.76 271.613 63.076L271.709 64H273.053V55.072H271.601V58.828C271.229 58.24 270.497 57.892 269.669 57.892C267.881 57.892 266.801 59.212 266.801 61.06C266.801 62.896 267.869 64.156 269.585 64.156ZM269.909 62.812C268.889 62.812 268.265 62.068 268.265 61.012C268.265 59.956 268.889 59.2 269.909 59.2C270.929 59.2 271.589 59.944 271.589 61.012C271.589 62.08 270.929 62.812 269.909 62.812Z" fill="#30827C"/>
<rect x="61" y="217" width="123" height="28" rx="14" fill="#E6CFF0"/>
<path d="M77.2818 231.976C79.0338 231.976 80.1858 230.788 80.1858 229.096C80.1858 227.38 79.0458 226.228 77.2818 226.228H73.8138V235H75.3498V231.976H77.2818ZM76.9818 227.596C78.0018 227.596 78.5778 228.124 78.5778 229.084C78.5778 230.044 78.0138 230.608 76.9578 230.608H75.3498V227.596H76.9818ZM83.6209 235.156C85.1689 235.156 86.2489 234.376 86.5009 233.08H85.1449C84.9769 233.644 84.4489 233.956 83.6449 233.956C82.6729 233.956 82.1209 233.428 82.0129 232.384L86.4769 232.372V231.928C86.4769 230.08 85.3489 228.892 83.5729 228.892C81.8329 228.892 80.6209 230.176 80.6209 232.036C80.6209 233.872 81.8569 235.156 83.6209 235.156ZM83.5849 230.092C84.4609 230.092 85.0249 230.632 85.0249 231.448H82.0489C82.1929 230.56 82.7209 230.092 83.5849 230.092ZM89.1126 235V231.808C89.1126 230.848 89.6646 230.224 90.5646 230.224C91.3206 230.224 91.8126 230.704 91.8126 231.7V235H93.2766V231.352C93.2766 229.816 92.5086 228.892 91.0206 228.892C90.2166 228.892 89.4966 229.24 89.1246 229.84L89.0046 229.072H87.6486V235H89.1126ZM97.151 235.156C98.051 235.156 98.819 234.76 99.179 234.076L99.275 235H100.619V226.072H99.167V229.828C98.795 229.24 98.063 228.892 97.235 228.892C95.447 228.892 94.367 230.212 94.367 232.06C94.367 233.896 95.435 235.156 97.151 235.156ZM97.475 233.812C96.455 233.812 95.831 233.068 95.831 232.012C95.831 230.956 96.455 230.2 97.475 230.2C98.495 230.2 99.155 230.944 99.155 232.012C99.155 233.08 98.495 233.812 97.475 233.812ZM102.877 227.884C103.357 227.884 103.753 227.488 103.753 226.996C103.753 226.504 103.357 226.12 102.877 226.12C102.373 226.12 101.977 226.504 101.977 226.996C101.977 227.488 102.373 227.884 102.877 227.884ZM102.145 235H103.609V229.072H102.145V235ZM106.585 235V231.808C106.585 230.848 107.137 230.224 108.037 230.224C108.793 230.224 109.285 230.704 109.285 231.7V235H110.749V231.352C110.749 229.816 109.981 228.892 108.493 228.892C107.689 228.892 106.969 229.24 106.597 229.84L106.477 229.072H105.121V235H106.585ZM111.852 231.904C111.852 233.62 112.956 234.88 114.636 234.88C115.488 234.88 116.22 234.532 116.592 233.98V234.964C116.592 235.948 115.944 236.584 114.936 236.584C114.036 236.584 113.448 236.128 113.352 235.36H111.888C112.068 236.944 113.232 237.916 114.936 237.916C116.856 237.916 118.044 236.68 118.044 234.7V229.072H116.688L116.604 229.888C116.256 229.252 115.56 228.88 114.672 228.88C112.98 228.88 111.852 230.176 111.852 231.904ZM113.328 231.868C113.328 230.896 113.952 230.164 114.924 230.164C115.944 230.164 116.556 230.86 116.556 231.868C116.556 232.9 115.932 233.608 114.924 233.608C113.964 233.608 113.328 232.864 113.328 231.868ZM123.765 235L124.473 232.972H127.749L128.457 235H130.077L126.909 226.228H125.337L122.169 235H123.765ZM125.925 228.844C126.009 228.604 126.081 228.34 126.117 228.172C126.141 228.352 126.225 228.616 126.297 228.844L127.305 231.676H124.929L125.925 228.844ZM130.961 237.748H132.425V234.208C132.797 234.808 133.565 235.156 134.453 235.156C136.217 235.156 137.225 233.812 137.225 231.964C137.225 230.104 136.121 228.892 134.453 228.892C133.553 228.892 132.773 229.288 132.413 229.972L132.317 229.072H130.961V237.748ZM132.437 232.036C132.437 230.968 133.097 230.224 134.105 230.224C135.137 230.224 135.749 230.98 135.749 232.036C135.749 233.092 135.137 233.836 134.105 233.836C133.097 233.836 132.437 233.104 132.437 232.036ZM138.391 237.748H139.855V234.208C140.227 234.808 140.995 235.156 141.883 235.156C143.647 235.156 144.655 233.812 144.655 231.964C144.655 230.104 143.551 228.892 141.883 228.892C140.983 228.892 140.203 229.288 139.843 229.972L139.747 229.072H138.391V237.748ZM139.867 232.036C139.867 230.968 140.527 230.224 141.535 230.224C142.567 230.224 143.179 230.98 143.179 232.036C143.179 233.092 142.567 233.836 141.535 233.836C140.527 233.836 139.867 233.104 139.867 232.036ZM149.54 229.048C149.3 228.988 149.096 228.964 148.892 228.964C148.1 228.964 147.536 229.36 147.284 229.948L147.2 229.084H145.82V235H147.284V232.12C147.284 230.968 147.944 230.404 149 230.404H149.54V229.048ZM149.984 232.024C149.984 233.872 151.316 235.144 153.152 235.144C154.988 235.144 156.32 233.872 156.32 232.024C156.32 230.176 154.988 228.904 153.152 228.904C151.316 228.904 149.984 230.176 149.984 232.024ZM151.448 232.024C151.448 230.944 152.144 230.212 153.152 230.212C154.16 230.212 154.856 230.944 154.856 232.024C154.856 233.104 154.16 233.836 153.152 233.836C152.144 233.836 151.448 233.104 151.448 232.024ZM158.868 235H160.308L162.78 229.072H161.268L160.188 231.796C159.936 232.444 159.72 233.068 159.636 233.44C159.564 233.116 159.36 232.504 159.108 231.796L158.076 229.072H156.516L158.868 235ZM165.092 235.156C166.016 235.156 166.82 234.736 167.072 234.124L167.18 235H168.464V231.4C168.464 229.756 167.48 228.892 165.884 228.892C164.276 228.892 163.22 229.732 163.22 231.016H164.468C164.468 230.392 164.948 230.032 165.812 230.032C166.556 230.032 167.036 230.356 167.036 231.16V231.292L165.26 231.424C163.856 231.532 163.064 232.216 163.064 233.308C163.064 234.424 163.832 235.156 165.092 235.156ZM165.572 234.052C164.912 234.052 164.552 233.788 164.552 233.248C164.552 232.768 164.9 232.468 165.812 232.384L167.048 232.288V232.6C167.048 233.512 166.472 234.052 165.572 234.052ZM171.378 235V226.072H169.926V235H171.378Z" fill="#786282"/>
<rect x="85" y="25" width="148.099" height="197.76" rx="10" fill="#FA6836"/>
<rect x="99" y="59" width="120" height="46" rx="10" fill="#C05A37"/>
<rect x="99" y="127" width="120" height="46" rx="10" fill="#C05A37"/>
<circle cx="92" cy="32" r="13" fill="#C6E5E3"/>
<path d="M87 32.5L92 36L98.5 29" stroke="#30827C" stroke-width="2" stroke-linecap="round"/>
<rect x="16" y="80" width="75" height="28" rx="14" fill="#F8D2D2"/>
<path d="M31.6682 98V94.724H33.5522L35.0402 98H36.7202L35.0522 94.4C36.0842 93.98 36.6362 93.14 36.6362 91.964C36.6362 90.236 35.4722 89.228 33.4802 89.228H30.1322V98H31.6682ZM31.6682 90.596H33.4802C34.4522 90.596 35.0282 91.088 35.0282 91.964C35.0282 92.852 34.4522 93.368 33.4802 93.368H31.6682V90.596ZM40.1853 98.156C41.7333 98.156 42.8133 97.376 43.0654 96.08H41.7093C41.5413 96.644 41.0133 96.956 40.2093 96.956C39.2373 96.956 38.6853 96.428 38.5773 95.384L43.0413 95.372V94.928C43.0413 93.08 41.9133 91.892 40.1373 91.892C38.3973 91.892 37.1853 93.176 37.1853 95.036C37.1853 96.872 38.4213 98.156 40.1853 98.156ZM40.1493 93.092C41.0253 93.092 41.5893 93.632 41.5893 94.448H38.6133C38.7573 93.56 39.2853 93.092 40.1493 93.092ZM44.945 90.884C45.425 90.884 45.833 90.488 45.833 89.996C45.833 89.504 45.425 89.12 44.945 89.12C44.453 89.12 44.057 89.504 44.057 89.996C44.057 90.488 44.453 90.884 44.945 90.884ZM42.797 100.784C43.181 100.892 43.397 100.916 43.673 100.916C44.957 100.916 45.677 100.1 45.677 98.84V92.072H44.213V98.672C44.213 99.272 44.045 99.56 43.541 99.56C43.361 99.56 43.241 99.548 43.037 99.488L42.797 100.784ZM49.8416 98.156C51.3896 98.156 52.4696 97.376 52.7216 96.08H51.3656C51.1976 96.644 50.6696 96.956 49.8656 96.956C48.8936 96.956 48.3416 96.428 48.2336 95.384L52.6976 95.372V94.928C52.6976 93.08 51.5696 91.892 49.7936 91.892C48.0536 91.892 46.8416 93.176 46.8416 95.036C46.8416 96.872 48.0776 98.156 49.8416 98.156ZM49.8056 93.092C50.6816 93.092 51.2456 93.632 51.2456 94.448H48.2696C48.4136 93.56 48.9416 93.092 49.8056 93.092ZM53.5213 95.024C53.5213 96.908 54.6973 98.156 56.4973 98.156C58.0453 98.156 59.1973 97.208 59.3773 95.828H57.9013C57.7453 96.476 57.2293 96.836 56.4973 96.836C55.5613 96.836 54.9853 96.14 54.9853 95.024C54.9853 93.908 55.6093 93.2 56.5453 93.2C57.2413 93.2 57.7333 93.548 57.9013 94.22H59.3653C59.2093 92.792 58.1053 91.892 56.4853 91.892C54.7333 91.892 53.5213 93.188 53.5213 95.024ZM62.4829 98V93.296H63.6349V92.072H62.4829V90.224H61.0189V92.072H59.8789V93.296H61.0189V98H62.4829ZM67.1385 98.156C68.6865 98.156 69.7665 97.376 70.0185 96.08H68.6625C68.4945 96.644 67.9665 96.956 67.1625 96.956C66.1905 96.956 65.6385 96.428 65.5305 95.384L69.9945 95.372V94.928C69.9945 93.08 68.8665 91.892 67.0905 91.892C65.3505 91.892 64.1385 93.176 64.1385 95.036C64.1385 96.872 65.3745 98.156 67.1385 98.156ZM67.1025 93.092C67.9785 93.092 68.5425 93.632 68.5425 94.448H65.5665C65.7105 93.56 66.2385 93.092 67.1025 93.092ZM73.6022 98.156C74.5022 98.156 75.2702 97.76 75.6302 97.076L75.7262 98H77.0702V89.072H75.6182V92.828C75.2462 92.24 74.5142 91.892 73.6862 91.892C71.8982 91.892 70.8182 93.212 70.8182 95.06C70.8182 96.896 71.8862 98.156 73.6022 98.156ZM73.9262 96.812C72.9062 96.812 72.2822 96.068 72.2822 95.012C72.2822 93.956 72.9062 93.2 73.9262 93.2C74.9462 93.2 75.6062 93.944 75.6062 95.012C75.6062 96.08 74.9462 96.812 73.9262 96.812Z" fill="#CA6262"/>
<rect x="41" y="41" width="102" height="136" rx="10" fill="white"/>
<rect x="0.5" y="76.5" width="101" height="135" rx="9.5" stroke="#493224"/>
<rect x="68.5" y="0.5" width="147.099" height="196.76" rx="9.5" stroke="#493224"/>
<rect x="203" y="73.8416" width="148.099" height="197.76" rx="10" fill="white"/>
<path d="M393.609 193.748C393.792 193.866 393.792 194.134 393.609 194.252L392.185 195.17C392.03 195.27 392.001 195.484 392.123 195.621L393.246 196.889C393.391 197.052 393.319 197.311 393.11 197.375L391.491 197.875C391.316 197.929 391.23 198.127 391.31 198.292L392.05 199.816C392.145 200.012 392.006 200.241 391.788 200.247L390.094 200.292C389.91 200.296 389.774 200.464 389.807 200.645L390.108 202.312C390.147 202.527 389.951 202.71 389.739 202.656L388.097 202.242C387.918 202.197 387.742 202.322 387.725 202.505L387.565 204.191C387.544 204.408 387.306 204.532 387.117 204.423L385.647 203.581C385.487 203.49 385.284 203.562 385.218 203.734L384.609 205.315C384.53 205.518 384.268 205.573 384.115 205.417L382.927 204.21C382.798 204.079 382.582 204.094 382.472 204.241L381.459 205.599C381.329 205.774 381.062 205.755 380.956 205.565L380.138 204.081C380.049 203.92 379.837 203.876 379.692 203.989L378.35 205.023C378.177 205.156 377.925 205.066 377.875 204.854L377.487 203.205C377.445 203.026 377.253 202.927 377.082 202.995L375.511 203.629C375.309 203.711 375.09 203.557 375.099 203.339L375.171 201.646C375.178 201.462 375.021 201.315 374.838 201.335L373.154 201.522C372.937 201.546 372.768 201.338 372.836 201.131L373.361 199.52C373.418 199.345 373.306 199.161 373.124 199.131L371.453 198.856C371.238 198.821 371.131 198.575 371.252 198.394L372.192 196.984C372.294 196.832 372.236 196.624 372.069 196.546L370.534 195.831C370.336 195.738 370.299 195.473 370.465 195.331L371.751 194.228C371.89 194.108 371.89 193.892 371.751 193.772L370.465 192.669C370.299 192.527 370.336 192.262 370.534 192.169L372.069 191.454C372.236 191.376 372.294 191.168 372.192 191.016L371.252 189.606C371.131 189.425 371.238 189.179 371.453 189.144L373.124 188.869C373.306 188.839 373.418 188.655 373.361 188.48L372.836 186.869C372.768 186.662 372.937 186.454 373.154 186.478L374.838 186.665C375.021 186.685 375.178 186.538 375.171 186.354L375.099 184.661C375.09 184.443 375.309 184.289 375.511 184.371L377.083 185.005C377.253 185.073 377.445 184.974 377.487 184.795L377.875 183.146C377.925 182.934 378.177 182.844 378.35 182.977L379.692 184.011C379.837 184.124 380.049 184.08 380.138 183.919L380.956 182.435C381.062 182.245 381.329 182.226 381.459 182.401L382.472 183.759C382.582 183.906 382.798 183.921 382.927 183.79L384.115 182.583C384.268 182.427 384.53 182.482 384.609 182.685L385.218 184.266C385.284 184.438 385.487 184.51 385.647 184.419L387.117 183.577C387.306 183.468 387.544 183.592 387.565 183.809L387.725 185.495C387.742 185.678 387.918 185.803 388.097 185.758L389.739 185.344C389.951 185.29 390.147 185.473 390.108 185.688L389.807 187.355C389.774 187.536 389.91 187.704 390.094 187.708L391.788 187.753C392.006 187.759 392.145 187.988 392.05 188.184L391.31 189.708C391.23 189.873 391.316 190.071 391.491 190.125L393.11 190.625C393.319 190.689 393.391 190.948 393.246 191.111L392.123 192.379C392.001 192.516 392.03 192.73 392.185 192.83L393.609 193.748Z" fill="#FA6836"/>
<path d="M326 167L228 167" stroke="#493224"/>
<path d="M326 188L228 188" stroke="#493224"/>
<path d="M386.609 237.248C386.792 237.366 386.792 237.634 386.609 237.752L379.297 242.465C379.143 242.565 379.113 242.779 379.235 242.916L385.004 249.427C385.149 249.591 385.076 249.849 384.868 249.913L376.556 252.479C376.38 252.533 376.294 252.731 376.375 252.896L380.173 260.722C380.268 260.919 380.129 261.148 379.911 261.153L371.215 261.381C371.031 261.386 370.895 261.554 370.927 261.735L372.473 270.295C372.512 270.51 372.316 270.693 372.105 270.639L363.67 268.513C363.492 268.468 363.315 268.592 363.298 268.775L362.477 277.435C362.456 277.653 362.218 277.776 362.029 277.667L354.481 273.344C354.321 273.253 354.118 273.325 354.052 273.496L350.925 281.614C350.846 281.818 350.584 281.872 350.431 281.717L344.329 275.517C344.2 275.386 343.984 275.401 343.874 275.548L338.673 282.521C338.543 282.696 338.275 282.677 338.17 282.486L333.967 274.87C333.878 274.709 333.667 274.665 333.521 274.778L326.632 280.089C326.459 280.222 326.206 280.132 326.156 279.92L324.164 271.452C324.122 271.273 323.93 271.174 323.76 271.243L315.693 274.498C315.49 274.58 315.271 274.425 315.281 274.207L315.647 265.516C315.654 265.332 315.497 265.185 315.314 265.205L306.668 266.163C306.451 266.187 306.282 265.979 306.349 265.772L309.047 257.502C309.104 257.327 308.992 257.142 308.81 257.113L300.226 255.703C300.011 255.667 299.904 255.422 300.025 255.24L304.854 248.004C304.956 247.851 304.898 247.643 304.731 247.566L296.846 243.892C296.648 243.8 296.612 243.535 296.777 243.393L303.379 237.728C303.518 237.608 303.518 237.392 303.379 237.272L296.777 231.607C296.612 231.465 296.648 231.2 296.846 231.108L304.731 227.434C304.898 227.357 304.956 227.149 304.854 226.996L300.025 219.76C299.904 219.578 300.011 219.333 300.226 219.297L308.81 217.887C308.992 217.857 309.104 217.673 309.047 217.498L306.349 209.228C306.282 209.021 306.451 208.813 306.668 208.837L315.314 209.795C315.497 209.815 315.654 209.668 315.647 209.484L315.281 200.793C315.271 200.575 315.49 200.42 315.693 200.502L323.76 203.757C323.93 203.826 324.122 203.727 324.164 203.548L326.156 195.08C326.206 194.868 326.459 194.778 326.632 194.911L333.521 200.222C333.667 200.335 333.878 200.291 333.967 200.13L338.17 192.514C338.275 192.323 338.543 192.304 338.673 192.479L343.874 199.452C343.984 199.599 344.2 199.614 344.329 199.483L350.431 193.283C350.584 193.128 350.846 193.182 350.925 193.386L354.052 201.504C354.118 201.675 354.321 201.747 354.481 201.656L362.029 197.333C362.218 197.224 362.456 197.347 362.477 197.565L363.298 206.225C363.315 206.408 363.492 206.532 363.67 206.487L372.105 204.361C372.316 204.307 372.512 204.49 372.473 204.705L370.927 213.265C370.895 213.446 371.031 213.614 371.215 213.619L379.911 213.847C380.129 213.852 380.268 214.081 380.173 214.278L376.375 222.104C376.294 222.269 376.38 222.467 376.556 222.521L384.868 225.087C385.076 225.151 385.149 225.409 385.004 225.573L379.235 232.084C379.113 232.221 379.143 232.435 379.297 232.535L386.609 237.248Z" fill="#FA6836"/>
<rect x="227" y="98" width="99" height="52" rx="6" fill="#FAF2EE"/>
</svg>
