<svg width="35" height="29" viewBox="0 0 35 29" fill="none" xmlns="http://www.w3.org/2000/svg">
<path d="M33.8222 13.7533C34.0054 13.8715 34.0054 14.1395 33.8222 14.2576L32.0457 15.4028C31.8912 15.5024 31.8618 15.7163 31.9837 15.8539L33.3853 17.4358C33.5299 17.599 33.4576 17.8571 33.2493 17.9214L31.2298 18.5448C31.0541 18.599 30.9681 18.797 31.0483 18.9624L31.9712 20.8638C32.0664 21.06 31.9271 21.289 31.7092 21.2947L29.5964 21.3501C29.4126 21.3549 29.2763 21.5224 29.309 21.7033L29.6846 23.7832C29.7234 23.9978 29.5275 24.1807 29.316 24.1274L27.2666 23.6107C27.0884 23.5658 26.912 23.6903 26.8946 23.8733L26.6952 25.9774C26.6746 26.1945 26.4366 26.3178 26.2474 26.2094L24.4134 25.159C24.2539 25.0676 24.0504 25.1399 23.9844 25.3115L23.2246 27.2837C23.1462 27.4872 22.8838 27.5418 22.7309 27.3863L21.2483 25.88C21.1193 25.749 20.9039 25.7638 20.794 25.9111L19.5303 27.6053C19.3999 27.7801 19.1326 27.7618 19.0272 27.5709L18.006 25.7204C17.9171 25.5595 17.7058 25.5155 17.5602 25.6278L15.8863 26.9182C15.7136 27.0513 15.461 26.9615 15.4111 26.7493L14.927 24.6919C14.8849 24.513 14.6932 24.4137 14.5227 24.4825L12.5627 25.2734C12.3605 25.355 12.1416 25.2004 12.1507 24.9826L12.2396 22.8709C12.2474 22.6872 12.0896 22.5399 11.9069 22.5601L9.80618 22.7929C9.58945 22.8169 9.42031 22.609 9.48792 22.4017L10.1433 20.3924C10.2003 20.2176 10.0881 20.0331 9.90667 20.0033L7.82109 19.6607C7.60591 19.6254 7.49913 19.3795 7.62017 19.1982L8.79332 17.4401C8.89537 17.2872 8.83712 17.0793 8.67047 17.0017L6.75466 16.1091C6.55699 16.017 6.5205 15.7515 6.68598 15.6095L8.28995 14.2332C8.42947 14.1134 8.42947 13.8975 8.28995 13.7778L6.68599 12.4015C6.5205 12.2595 6.557 11.994 6.75466 11.9019L8.67047 11.0093C8.83712 10.9317 8.89537 10.7238 8.79332 10.5708L7.62017 8.8128C7.49914 8.63142 7.60591 8.38559 7.82109 8.35025L9.90667 8.00767C10.0881 7.97787 10.2003 7.7934 10.1433 7.61861L9.48792 5.60925C9.42031 5.40194 9.58945 5.19403 9.80618 5.21805L11.9069 5.45086C12.0896 5.47111 12.2474 5.32375 12.2396 5.14007L12.1507 3.02841C12.1416 2.81054 12.3605 2.65598 12.5627 2.73758L14.5227 3.52851C14.6932 3.59731 14.8849 3.49798 14.927 3.31903L15.4111 1.26168C15.461 1.04942 15.7136 0.95967 15.8863 1.0928L17.5602 2.38319C17.7058 2.49543 17.9171 2.45151 18.006 2.29055L19.0272 0.44011C19.1326 0.249196 19.3999 0.230907 19.5303 0.405696L20.794 2.09984C20.9039 2.24721 21.1193 2.26194 21.2483 2.13092L22.7309 0.62462C22.8838 0.469212 23.1462 0.523741 23.2246 0.727223L23.9844 2.69948C24.0505 2.87104 24.2539 2.94334 24.4134 2.85197L26.2474 1.80153C26.4366 1.69315 26.6746 1.81645 26.6952 2.03354L26.8946 4.13764C26.912 4.32066 27.0884 4.44517 27.2666 4.40022L29.316 3.88354C29.5275 3.83024 29.7234 4.01317 29.6846 4.22776L29.309 6.30764C29.2763 6.48856 29.4126 6.65604 29.5964 6.66086L31.7092 6.71626C31.9271 6.72198 32.0664 6.95097 31.9712 7.14715L31.0483 9.04856C30.9681 9.21395 31.0541 9.41198 31.2298 9.46621L33.2493 10.0896C33.4576 10.1539 33.5299 10.412 33.3853 10.5752L31.9837 12.1571C31.8618 12.2947 31.8912 12.5086 32.0457 12.6082L33.8222 13.7533Z" fill="#FA6836"/>
<path d="M8.30195 23.2194C8.48523 23.3376 8.48523 23.6056 8.30195 23.7237L8.22307 23.7746C8.06855 23.8742 8.03915 24.0881 8.16107 24.2257L8.2233 24.2959C8.36791 24.4591 8.2956 24.7172 8.08724 24.7815L7.99757 24.8092C7.82191 24.8634 7.73589 25.0615 7.81616 25.2269L7.85714 25.3113C7.95235 25.5075 7.81309 25.7365 7.59511 25.7422L7.50129 25.7446C7.31751 25.7495 7.18126 25.9169 7.21393 26.0979L7.23061 26.1902C7.26937 26.4048 7.07349 26.5877 6.86205 26.5344L6.77105 26.5115C6.59278 26.4665 6.4164 26.591 6.39905 26.7741L6.39019 26.8675C6.36961 27.0846 6.13165 27.2079 5.94243 27.0995L5.86099 27.0529C5.70146 26.9615 5.49803 27.0338 5.43194 27.2053L5.39821 27.2929C5.31982 27.4964 5.05741 27.5509 4.90445 27.3955L4.83862 27.3286C4.70966 27.1976 4.49426 27.2124 4.38434 27.3597L4.32823 27.4349C4.19785 27.6097 3.93046 27.5914 3.8251 27.4005L3.77975 27.3184C3.69092 27.1574 3.47954 27.1135 3.33393 27.2257L3.25961 27.283C3.08691 27.4161 2.83437 27.3264 2.78442 27.1141L2.76293 27.0228C2.72082 26.8438 2.52912 26.7445 2.35864 26.8133L2.27161 26.8484C2.06939 26.93 1.85043 26.7755 1.8596 26.5576L1.86355 26.4638C1.87129 26.2801 1.7135 26.1328 1.53077 26.153L1.4375 26.1634C1.22076 26.1874 1.05162 25.9795 1.11924 25.7722L1.14833 25.683C1.20534 25.5082 1.09316 25.3237 0.911747 25.2939L0.819139 25.2787C0.603965 25.2433 0.497187 24.9975 0.618224 24.8161L0.670316 24.7381C0.772361 24.5851 0.714111 24.3773 0.547467 24.2996L0.462397 24.26C0.264739 24.1679 0.228244 23.9024 0.393728 23.7604L0.46495 23.6993C0.604468 23.5795 0.604468 23.3636 0.46495 23.2439L0.393728 23.1828C0.228244 23.0408 0.264739 22.7753 0.462398 22.6832L0.547467 22.6436C0.714112 22.5659 0.772361 22.358 0.670317 22.2051L0.618224 22.127C0.497187 21.9457 0.603965 21.6998 0.819139 21.6645L0.911747 21.6493C1.09316 21.6195 1.20534 21.435 1.14833 21.2602L1.11924 21.171C1.05162 20.9637 1.22076 20.7558 1.4375 20.7798L1.53077 20.7901C1.7135 20.8104 1.87129 20.663 1.86355 20.4794L1.85961 20.3856C1.85043 20.1677 2.06939 20.0132 2.27161 20.0948L2.35864 20.1299C2.52912 20.1987 2.72082 20.0994 2.76293 19.9204L2.78442 19.829C2.83437 19.6168 3.08691 19.527 3.25961 19.6602L3.33394 19.7175C3.47954 19.8297 3.69092 19.7858 3.77975 19.6248L3.8251 19.5427C3.93046 19.3517 4.19785 19.3335 4.32823 19.5082L4.38434 19.5835C4.49426 19.7308 4.70966 19.7456 4.83862 19.6145L4.90445 19.5477C5.05741 19.3922 5.31982 19.4468 5.39821 19.6503L5.43194 19.7378C5.49803 19.9094 5.70146 19.9817 5.86099 19.8903L5.94243 19.8437C6.13165 19.7353 6.36961 19.8586 6.39019 20.0757L6.39905 20.1691C6.4164 20.3521 6.59278 20.4766 6.77105 20.4317L6.86205 20.4088C7.07349 20.3555 7.26937 20.5384 7.23061 20.753L7.21393 20.8453C7.18126 21.0262 7.31752 21.1937 7.50129 21.1985L7.59511 21.201C7.81309 21.2067 7.95235 21.4357 7.85714 21.6319L7.81616 21.7163C7.73589 21.8817 7.82191 22.0797 7.99757 22.134L8.08724 22.1616C8.2956 22.226 8.36791 22.484 8.2233 22.6472L8.16107 22.7175C8.03915 22.8551 8.06855 23.069 8.22307 23.1686L8.30195 23.2194Z" fill="#FA6836"/>
</svg>
